<svg width="147" height="32" viewBox="0 0 147 32" fill="none" xmlns="http://www.w3.org/2000/svg">
<path d="M109.024 15.6149C109.024 20.8867 112.185 23.9588 115.486 23.9588H117.501C120.384 23.9588 122.573 21.6902 122.955 18.8978H127.61C127.159 24.2739 122.33 28.114 117.465 28.114H115.519C109.822 28.114 104.124 23.7501 104.124 15.617C104.124 7.48399 110.065 3.12007 115.554 3.12007H117.534C123.059 3.12007 127.089 7.20433 127.61 12.3363H122.955C122.608 9.68369 120.384 7.27529 117.605 7.27529H115.59C112.358 7.27529 109.024 10.3119 109.024 15.6191V15.6149ZM146.998 19.0355C146.998 24.3073 143.384 28.1119 138.59 28.1119H137.096C132.267 28.1119 128.62 24.2718 128.62 19.0355C128.62 13.7993 132.267 9.95917 137.063 9.95917H138.556C143.386 9.95917 147 13.7638 147 19.0355H146.998ZM142.482 19.0355C142.482 16.1033 140.71 13.8347 138.453 13.8347H137.202C134.909 13.8347 133.137 16.0344 133.137 19.0355C133.137 22.0367 134.909 24.2364 137.202 24.2364H138.453C140.71 24.2364 142.482 21.9678 142.482 19.0355ZM30.6916 20.3984L27.0441 20.8867C25.5154 21.1309 24.3335 21.7591 24.3335 23.1219C24.3335 24.3428 25.237 25.0774 27.0774 25.0774C29.545 25.0774 31.699 23.821 31.699 21.3062V21.1664C31.699 20.678 31.3853 20.294 30.6916 20.3984ZM55.5319 13.8347H54.1423C52.8565 13.8347 51.6061 14.5673 50.9456 16.0699C50.5634 16.6981 50.877 17.2219 51.6061 17.2219H57.8956C58.5894 17.2219 58.9716 16.7336 58.6953 16.1054C58.2093 14.7781 56.9588 13.8368 55.5339 13.8368L55.5319 13.8347ZM100.36 0.4174V31.5826C100.36 31.8122 100.173 32 99.9449 32H0V0H99.9449C100.173 0 100.36 0.18783 100.36 0.4174ZM17.1404 7.93687H23.567V3.78373H3.76375V7.93687H10.2257C10.8862 7.93687 11.2684 8.32088 11.2684 8.98454V28.2184H16.0977V8.98246C16.0977 8.31879 16.4799 7.93478 17.1404 7.93478V7.93687ZM38.3686 24.4492C36.8398 24.4492 36.2479 24.3449 36.2479 23.1574V16.7691C36.2479 12.929 33.2256 10.3453 28.9862 10.3453H27.4575C23.5317 10.3453 20.1273 12.545 19.8843 16.4184H24.4353C24.5391 14.8135 25.7563 13.9391 27.4575 13.9391H28.9862C30.6189 13.9391 31.7301 14.8824 31.7301 16.3475C31.7301 16.8358 31.4165 17.08 30.7913 17.151L26.2756 17.6748C22.5929 18.0943 19.7784 20.0832 19.7784 23.2951C19.7784 26.507 22.246 28.4959 26.3109 28.4959C28.5002 28.4959 30.4111 27.7989 31.4871 26.7512C31.9731 26.3317 32.426 26.3317 32.7375 26.8555C33.1883 27.7279 33.8841 28.2163 35.3775 28.2163H38.3665V24.4471L38.3686 24.4492ZM44.3507 3.78373H39.8683V28.2204H44.3507V3.78165V3.78373ZM63.3834 18.8644C63.3834 14.1165 60.0475 10.3474 55.5319 10.3474H54.0716C50.0753 10.3474 45.7673 13.6636 45.7673 19.3882C45.7673 24.6934 49.3462 28.5001 54.1402 28.5001H55.5298C59.5262 28.5001 62.8267 25.9519 63.2089 22.2871H58.9363C58.6932 23.6478 57.3036 24.7665 55.6004 24.7665H54.1755C52.2645 24.7665 50.9435 23.2993 50.5281 21.4857C50.3204 20.8575 50.6672 20.4025 51.3963 20.4025H63.3128C63.3128 20.2272 63.3834 19.67 63.3834 18.8665V18.8644ZM82.5947 17.0842C82.5947 13.2086 79.7449 10.3474 76.4111 10.3474H74.9509C73.4574 10.3474 72.1031 11.011 71.1643 11.779C70.3314 12.4427 69.81 12.0587 69.81 11.3596V10.627H65.3276V28.2204H69.81V18.8289C69.81 16.3162 71.4094 14.3607 73.7004 14.3607H75.0215C76.8971 14.3607 78.1143 15.9656 78.1143 18.0254V28.2184H82.5968V17.0821L82.5947 17.0842ZM96.7357 10.627H92.3925C91.7319 10.627 91.3497 10.243 91.3497 9.57934V4.48288L86.8673 6.36744V9.57934C86.8673 10.243 86.4851 10.627 85.8246 10.627H83.114V14.3982H85.8246C86.4851 14.3982 86.8673 14.7822 86.8673 15.4459V23.0217C86.8673 26.6176 88.8136 28.2225 92.0788 28.2225H96.5945V24.4534H93.3292C92.1474 24.4534 91.3497 24.0005 91.3497 22.5334V15.4459C91.3497 14.7822 91.7319 14.3982 92.3925 14.3982H96.7357V10.627Z" fill="#0B5CFF"/>
</svg>
